<?xml version="1.0" encoding="UTF-8" standalone="no"?>
<!-- Created with Inkscape (http://www.inkscape.org/) -->

<svg
   xmlns:dc="http://purl.org/dc/elements/1.1/"
   xmlns:cc="http://creativecommons.org/ns#"
   xmlns:rdf="http://www.w3.org/1999/02/22-rdf-syntax-ns#"
   xmlns:svg="http://www.w3.org/2000/svg"
   xmlns="http://www.w3.org/2000/svg"
   xmlns:sodipodi="http://sodipodi.sourceforge.net/DTD/sodipodi-0.dtd"
   xmlns:inkscape="http://www.inkscape.org/namespaces/inkscape"
   version="1.1"
   id="svg2"
   xml:space="preserve"
   width="100"
   height="100"
   viewBox="0 0 100 100"
   sodipodi:docname="Github.svg"
   inkscape:version="0.92.5 (2060ec1f9f, 2020-04-08)"><metadata
     id="metadata8"><rdf:RDF><cc:Work
         rdf:about=""><dc:format>image/svg+xml</dc:format><dc:type
           rdf:resource="http://purl.org/dc/dcmitype/StillImage" /><dc:title></dc:title></cc:Work></rdf:RDF></metadata><defs
     id="defs6"><clipPath
       clipPathUnits="userSpaceOnUse"
       id="clipPath20"><path
         d="M 0,551.986 H 530.973 V 0 H 0 Z"
         id="path18"
         inkscape:connector-curvature="0" /></clipPath></defs><sodipodi:namedview
     pagecolor="#ffffff"
     bordercolor="#666666"
     borderopacity="1"
     objecttolerance="10"
     gridtolerance="10"
     guidetolerance="10"
     inkscape:pageopacity="0"
     inkscape:pageshadow="2"
     inkscape:window-width="1882"
     inkscape:window-height="1050"
     id="namedview4"
     showgrid="false"
     inkscape:zoom="20.52226"
     inkscape:cx="12.735825"
     inkscape:cy="45.337915"
     inkscape:window-x="38"
     inkscape:window-y="0"
     inkscape:window-maximized="1"
     inkscape:current-layer="g10" /><g
     id="g10"
     inkscape:groupmode="layer"
     inkscape:label="GitHub-Mark"
     transform="matrix(1.3333333,0,0,-1.3333333,0,100.00001)"><path
       d="m 37.568969,73.942193 c -20.632984,0 -37.36421963,-16.727524 -37.36421963,-37.364221 0,-16.507873 10.70598663,-30.5135774 25.55193363,-35.4541834 1.867345,-0.34587258 2.552904,0.8105446 2.552904,1.797428 0,0.8903606 -0.03465,3.8343064 -0.05074,6.9564476 -10.394763,-2.2602418 -12.588182,4.4084918 -12.588182,4.4084918 -1.699667,4.318157 -4.148624,5.467151 -4.148624,5.467151 -3.3900532,2.319021 0.255538,2.271379 0.255538,2.271379 3.752015,-0.263583 5.727638,-3.851012 5.727638,-3.851012 3.332512,-5.711551 8.740882,-4.060145 10.873045,-3.105435 0.335974,2.414306 1.303677,4.063238 2.372233,4.996291 -8.299103,0.944191 -17.023279,4.148624 -17.023279,18.465553 0,4.078707 1.459598,7.412456 3.849775,10.02909 -0.387948,0.941097 -1.666875,4.741373 0.362579,9.888018 0,0 3.137609,1.00359 10.277202,-3.830594 2.980451,0.827869 6.176841,1.24304 9.352193,1.257889 3.175353,-0.01485 6.374216,-0.43002 9.360236,-1.257889 7.131556,4.834184 10.264826,3.830594 10.264826,3.830594 2.033788,-5.146645 0.754855,-8.946921 0.366909,-9.888018 2.395747,-2.616634 3.844831,-5.950383 3.844831,-10.02909 0,-14.351578 -8.740879,-17.510844 -17.061026,-18.435854 1.340181,-1.15951 2.534343,-3.433365 2.534343,-6.919322 0,-4.9993857 -0.0427,-9.0230249 -0.0427,-10.2536904 0,-0.9949266 0.671947,-2.15938808 2.565887,-1.7930963 14.838535,4.9461749 25.530905,18.9469287 25.530905,35.4498517 0,20.636697 -16.728767,37.364221 -37.364218,37.364221"
       style="fill:#1b1817;fill-opacity:1;fill-rule:evenodd;stroke:none;stroke-width:0.61873579"
       id="path28"
       inkscape:connector-curvature="0" /><path
       d="m 14.283625,20.33236 c -0.0823,-0.186239 -0.374335,-0.241926 -0.640391,-0.114462 -0.271626,0.12251 -0.423216,0.375572 -0.335355,0.561812 0.08043,0.190571 0.372479,0.243782 0.643486,0.116322 0.271006,-0.121891 0.42569,-0.377429 0.33226,-0.563668"
       style="fill:#1b1817;fill-opacity:1;fill-rule:nonzero;stroke:none;stroke-width:0.61873579"
       id="path32"
       inkscape:connector-curvature="0" /><path
       d="m 15.797245,18.644139 c -0.178196,-0.165202 -0.527163,-0.08848 -0.762901,0.172628 -0.24502,0.260487 -0.290187,0.609454 -0.109513,0.776513 0.183765,0.165202 0.521594,0.08786 0.765995,-0.172627 0.24502,-0.263582 0.292662,-0.608836 0.106418,-0.776514"
       style="fill:#1b1817;fill-opacity:1;fill-rule:nonzero;stroke:none;stroke-width:0.61873579"
       id="path36"
       inkscape:connector-curvature="0" /><path
       d="m 17.270394,16.492485 c -0.228933,-0.159633 -0.603886,-0.01047 -0.835294,0.321743 -0.228933,0.33288 -0.228933,0.731345 0.0055,0.89098 0.231406,0.159633 0.600792,0.01547 0.835294,-0.313699 0.228312,-0.337831 0.228312,-0.736296 -0.0055,-0.899024"
       style="fill:#1b1817;fill-opacity:1;fill-rule:nonzero;stroke:none;stroke-width:0.61873579"
       id="path40"
       inkscape:connector-curvature="0" /><path
       d="m 19.288518,14.413286 c -0.204801,-0.225839 -0.641011,-0.165204 -0.960278,0.143547 -0.326693,0.300704 -0.417647,0.728251 -0.212845,0.95409 0.207895,0.226457 0.646584,0.162728 0.968322,-0.142928 0.324223,-0.300706 0.422602,-0.731346 0.204801,-0.954709"
       style="fill:#1b1817;fill-opacity:1;fill-rule:nonzero;stroke:none;stroke-width:0.61873579"
       id="path44"
       inkscape:connector-curvature="0" /><path
       d="m 22.072829,13.206069 c -0.09095,-0.292661 -0.510456,-0.42507 -0.933672,-0.300704 -0.422591,0.128077 -0.699166,0.470238 -0.61378,0.765994 0.08786,0.294518 0.509832,0.433115 0.936141,0.300087 0.421978,-0.127459 0.699177,-0.467764 0.611311,-0.765377"
       style="fill:#1b1817;fill-opacity:1;fill-rule:nonzero;stroke:none;stroke-width:0.61873579"
       id="path48"
       inkscape:connector-curvature="0" /><path
       d="m 25.130876,12.982465 c 0.01047,-0.30813 -0.348349,-0.563675 -0.792601,-0.569244 -0.446727,-0.0099 -0.808687,0.239452 -0.813638,0.542632 0,0.311224 0.351442,0.563669 0.79755,0.571712 0.444253,0.0086 0.808689,-0.23945 0.808689,-0.5451"
       style="fill:#1b1817;fill-opacity:1;fill-rule:nonzero;stroke:none;stroke-width:0.61873579"
       id="path52"
       inkscape:connector-curvature="0" /><path
       d="m 27.976194,13.466496 c 0.05321,-0.300087 -0.255538,-0.608837 -0.696696,-0.691128 -0.433735,-0.07982 -0.835294,0.106417 -0.890361,0.404034 -0.05383,0.30813 0.259868,0.61688 0.693603,0.696696 0.441777,0.07673 0.837149,-0.103943 0.893454,-0.409602"
       style="fill:#1b1817;fill-opacity:1;fill-rule:nonzero;stroke:none;stroke-width:0.61873579"
       id="path56"
       inkscape:connector-curvature="0" /></g></svg>